ffmpeg started on 2026-01-18 at 20:25:40
Report written to "C:\Dev\OSPanel\domains\Java-AT\modules\ffmpeg\FFMetrics\reports\psnr_report-6.txt"
Log level: 32
Command line:
ffmpeg -hide_banner -nostdin -r 24000/1001 -i "F:\\Convert\\files\\[DC] Make Heroine ga Oosugiru - 07_Telegram_HEVC(161).mkv" -r 24000/1001 -i "F:\\Convert\\files\\[DC] Make Heroine ga Oosugiru - 07_Telegram.mp4" -lavfi "[0:v]settb=AVTB,setpts=PTS-STARTPTS,format=pix_fmts=yuv420p10le,fps=24000/1001,scale=1920:1080:flags=lanczos:param0=3:out_range=limited:out_color_matrix=bt709:out_chroma_loc=left,setsar=1/1,setdar=(1920/1080)*(1/1),colorspace=format=yuv420p10:range=tv:primaries=bt709:trc=bt709:space=bt709:fast=0[main];[1:v]settb=AVTB,setpts=PTS-STARTPTS,format=pix_fmts=yuv420p,fps=24000/1001,scale=1920:1080:flags=lanczos:param0=3:out_range=limited:out_color_matrix=bt709:out_chroma_loc=left,setsar=1.000,setdar=1.778,colorspace=format=yuv420p:range=tv:primaries=bt709:trc=bt709:space=bt709:fast=0[ref];[main][ref]psnr=eof_action=endall:stats_file='C\\:/Dev/OSPanel/domains/Java-AT/modules/ffmpeg/FFMetrics/logs/psnr_logfile-6.txt'" -f null -
Input #0, matroska,webm, from 'F:\Convert\files\[DC] Make Heroine ga Oosugiru - 07_Telegram_HEVC(161).mkv':
  Metadata:
    COMPATIBLE_BRANDS: isomiso2avc1mp41
    MAJOR_BRAND     : isom
    MINOR_VERSION   : 512
    ENCODER         : Lavf61.7.100
  Duration: 00:24:06.79, start: -0.021000, bitrate: 1039 kb/s
  Stream #0:0: Video: hevc (Main 10), yuv420p10le(tv, bt709, progressive), 1920x1080 [SAR 1:1 DAR 16:9], 23.98 fps, 23.98 tbr, 1k tbn (default)
      Metadata:
        HANDLER_NAME    : VideoHandler
        VENDOR_ID       : [0][0][0][0]
        ENCODER         : Lavc61.19.100 libx265
        BPS             : 841924
        DURATION        : 00:24:06.569708333
        NUMBER_OF_FRAMES: 34683
        NUMBER_OF_BYTES : 152237795
        _STATISTICS_WRITING_APP: mkvpropedit v94.0 ('Initiate') 64-bit
        _STATISTICS_WRITING_DATE_UTC: 2026-01-18 09:55:01
        _STATISTICS_TAGS: BPS DURATION NUMBER_OF_FRAMES NUMBER_OF_BYTES
  Stream #0:1: Audio: aac (LC), 48000 Hz, stereo, fltp (default)
      Metadata:
        HANDLER_NAME    : SoundHandler
        VENDOR_ID       : [0][0][0][0]
        ENCODER         : Lavc61.19.100 aac
        BPS             : 193194
        DURATION        : 00:24:06.784000000
        NUMBER_OF_FRAMES: 67819
        NUMBER_OF_BYTES : 34938755
        _STATISTICS_WRITING_APP: mkvpropedit v94.0 ('Initiate') 64-bit
        _STATISTICS_WRITING_DATE_UTC: 2026-01-18 09:55:01
        _STATISTICS_TAGS: BPS DURATION NUMBER_OF_FRAMES NUMBER_OF_BYTES
Input #1, mov,mp4,m4a,3gp,3g2,mj2, from 'F:\Convert\files\[DC] Make Heroine ga Oosugiru - 07_Telegram.mp4':
  Metadata:
    major_brand     : isom
    minor_version   : 512
    compatible_brands: isomiso2avc1mp41
    encoder         : Lavf60.16.100
  Duration: 00:24:06.74, start: 0.000000, bitrate: 3764 kb/s
  Stream #1:0[0x1](und): Video: h264 (High) (avc1 / 0x31637661), yuv420p(tv, bt709, progressive), 1920x1080 [SAR 1:1 DAR 16:9], 3616 kb/s, 23.98 fps, 23.98 tbr, 24k tbn (default)
      Metadata:
        handler_name    : VideoHandler
        vendor_id       : [0][0][0][0]
        encoder         : Lavc60.31.102 h264_qsv
  Stream #1:1[0x2](und): Audio: aac (HE-AACv2) (mp4a / 0x6134706D), 48000 Hz, stereo, fltp, 144 kb/s (default)
      Metadata:
        handler_name    : SoundHandler
        vendor_id       : [0][0][0][0]
Stream mapping:
  Stream #0:0 (hevc) -> settb:default
  Stream #1:0 (h264) -> settb:default
  psnr:default -> Stream #0:0 (wrapped_avframe)
  Stream #0:1 -> #0:1 (aac (native) -> pcm_s16le (native))
Output #0, null, to 'pipe:':
  Metadata:
    COMPATIBLE_BRANDS: isomiso2avc1mp41
    MAJOR_BRAND     : isom
    MINOR_VERSION   : 512
    encoder         : Lavf61.7.100
  Stream #0:0: Video: wrapped_avframe, yuv420p10le(tv, bt709, progressive), 1920x1080 [SAR 1:1 DAR 16:9], q=2-31, 200 kb/s, 23.98 fps, 23.98 tbn
      Metadata:
        encoder         : Lavc61.19.100 wrapped_avframe
  Stream #0:1: Audio: pcm_s16le, 48000 Hz, stereo, s16, 1536 kb/s (default)
      Metadata:
        HANDLER_NAME    : SoundHandler
        VENDOR_ID       : [0][0][0][0]
        _STATISTICS_TAGS: BPS DURATION NUMBER_OF_FRAMES NUMBER_OF_BYTES
        BPS             : 193194
        DURATION        : 00:24:06.784000000
        NUMBER_OF_FRAMES: 67819
        NUMBER_OF_BYTES : 34938755
        _STATISTICS_WRITING_APP: mkvpropedit v94.0 ('Initiate') 64-bit
        _STATISTICS_WRITING_DATE_UTC: 2026-01-18 09:55:01
        encoder         : Lavc61.19.100 pcm_s16le
frame=  143 fps=0.0 q=-0.0 size=N/A time=00:00:05.96 bitrate=N/A speed=11.3x    frame=  346 fps=332 q=-0.0 size=N/A time=00:00:14.43 bitrate=N/A speed=13.8x    frame=  544 fps=350 q=-0.0 size=N/A time=00:00:22.68 bitrate=N/A speed=14.6x    frame=  745 fps=360 q=-0.0 size=N/A time=00:00:31.07 bitrate=N/A speed=  15x    frame=  923 fps=358 q=-0.0 size=N/A time=00:00:38.49 bitrate=N/A speed=14.9x    frame= 1082 fps=348 q=-0.0 size=N/A time=00:00:45.12 bitrate=N/A speed=14.5x    frame= 1240 fps=343 q=-0.0 size=N/A time=00:00:51.71 bitrate=N/A speed=14.3x    frame= 1410 fps=341 q=-0.0 size=N/A time=00:00:58.80 bitrate=N/A speed=14.2x    frame= 1554 fps=335 q=-0.0 size=N/A time=00:01:04.81 bitrate=N/A speed=  14x    frame= 1718 fps=332 q=-0.0 size=N/A time=00:01:11.65 bitrate=N/A speed=13.9x    frame= 1889 fps=332 q=-0.0 size=N/A time=00:01:18.78 bitrate=N/A speed=13.9x    frame= 2048 fps=331 q=-0.0 size=N/A time=00:01:25.41 bitrate=N/A speed=13.8x    frame= 2164 fps=323 q=-0.0 size=N/A time=00:01:30.25 bitrate=N/A speed=13.5x    frame= 2324 fps=322 q=-0.0 size=N/A time=00:01:36.93 bitrate=N/A speed=13.4x    frame= 2466 fps=318 q=-0.0 size=N/A time=00:01:42.85 bitrate=N/A speed=13.3x    frame= 2605 fps=315 q=-0.0 size=N/A time=00:01:48.65 bitrate=N/A speed=13.2x    frame= 2796 fps=319 q=-0.0 size=N/A time=00:01:56.61 bitrate=N/A speed=13.3x    frame= 2973 fps=320 q=-0.0 size=N/A time=00:02:03.99 bitrate=N/A speed=13.4x    frame= 3173 fps=324 q=-0.0 size=N/A time=00:02:12.34 bitrate=N/A speed=13.5x    frame= 3388 fps=328 q=-0.0 size=N/A time=00:02:21.30 bitrate=N/A speed=13.7x    frame= 3591 fps=331 q=-0.0 size=N/A time=00:02:29.77 bitrate=N/A speed=13.8x    frame= 3800 fps=335 q=-0.0 size=N/A time=00:02:38.49 bitrate=N/A speed=  14x    frame= 4000 fps=337 q=-0.0 size=N/A time=00:02:46.83 bitrate=N/A speed=14.1x    frame= 4207 fps=340 q=-0.0 size=N/A time=00:02:55.46 bitrate=N/A speed=14.2x    frame= 4409 fps=342 q=-0.0 size=N/A time=00:03:03.89 bitrate=N/A speed=14.3x    frame= 4619 fps=344 q=-0.0 size=N/A time=00:03:12.65 bitrate=N/A speed=14.4x    frame= 4817 fps=346 q=-0.0 size=N/A time=00:03:20.90 bitrate=N/A speed=14.4x    frame= 5021 fps=348 q=-0.0 size=N/A time=00:03:29.41 bitrate=N/A speed=14.5x    frame= 5227 fps=349 q=-0.0 size=N/A time=00:03:38.00 bitrate=N/A speed=14.6x    frame= 5429 fps=351 q=-0.0 size=N/A time=00:03:46.43 bitrate=N/A speed=14.6x    frame= 5632 fps=352 q=-0.0 size=N/A time=00:03:54.90 bitrate=N/A speed=14.7x    frame= 5837 fps=354 q=-0.0 size=N/A time=00:04:03.45 bitrate=N/A speed=14.8x    frame= 6047 fps=355 q=-0.0 size=N/A time=00:04:12.21 bitrate=N/A speed=14.8x    frame= 6247 fps=356 q=-0.0 size=N/A time=00:04:20.55 bitrate=N/A speed=14.9x    frame= 6454 fps=358 q=-0.0 size=N/A time=00:04:29.18 bitrate=N/A speed=14.9x    frame= 6656 fps=359 q=-0.0 size=N/A time=00:04:37.61 bitrate=N/A speed=  15x    frame= 6865 fps=360 q=-0.0 size=N/A time=00:04:46.32 bitrate=N/A speed=  15x    frame= 7061 fps=360 q=-0.0 size=N/A time=00:04:54.50 bitrate=N/A speed=  15x    frame= 7262 fps=361 q=-0.0 size=N/A time=00:05:02.88 bitrate=N/A speed=15.1x    frame= 7471 fps=362 q=-0.0 size=N/A time=00:05:11.60 bitrate=N/A speed=15.1x    frame= 7668 fps=362 q=-0.0 size=N/A time=00:05:19.81 bitrate=N/A speed=15.1x    frame= 7869 fps=363 q=-0.0 size=N/A time=00:05:28.20 bitrate=N/A speed=15.1x    frame= 8069 fps=364 q=-0.0 size=N/A time=00:05:36.54 bitrate=N/A speed=15.2x    frame= 8268 fps=364 q=-0.0 size=N/A time=00:05:44.84 bitrate=N/A speed=15.2x    frame= 8473 fps=365 q=-0.0 size=N/A time=00:05:53.39 bitrate=N/A speed=15.2x    frame= 8676 fps=365 q=-0.0 size=N/A time=00:06:01.86 bitrate=N/A speed=15.2x    frame= 8882 fps=366 q=-0.0 size=N/A time=00:06:10.45 bitrate=N/A speed=15.3x    frame= 9082 fps=367 q=-0.0 size=N/A time=00:06:18.79 bitrate=N/A speed=15.3x    frame= 9286 fps=367 q=-0.0 size=N/A time=00:06:27.30 bitrate=N/A speed=15.3x    frame= 9489 fps=368 q=-0.0 size=N/A time=00:06:35.77 bitrate=N/A speed=15.3x    frame= 9686 fps=368 q=-0.0 size=N/A time=00:06:43.98 bitrate=N/A speed=15.3x    frame= 9886 fps=368 q=-0.0 size=N/A time=00:06:52.32 bitrate=N/A speed=15.4x    frame=10098 fps=369 q=-0.0 size=N/A time=00:07:01.17 bitrate=N/A speed=15.4x    frame=10291 fps=369 q=-0.0 size=N/A time=00:07:09.22 bitrate=N/A speed=15.4x    frame=10491 fps=370 q=-0.0 size=N/A time=00:07:17.56 bitrate=N/A speed=15.4x    frame=10692 fps=370 q=-0.0 size=N/A time=00:07:25.94 bitrate=N/A speed=15.4x    frame=10898 fps=370 q=-0.0 size=N/A time=00:07:34.53 bitrate=N/A speed=15.4x    frame=11110 fps=371 q=-0.0 size=N/A time=00:07:43.37 bitrate=N/A speed=15.5x    frame=11293 fps=371 q=-0.0 size=N/A time=00:07:51.01 bitrate=N/A speed=15.5x    frame=11500 fps=371 q=-0.0 size=N/A time=00:07:59.64 bitrate=N/A speed=15.5x    frame=11703 fps=372 q=-0.0 size=N/A time=00:08:08.11 bitrate=N/A speed=15.5x    frame=11908 fps=372 q=-0.0 size=N/A time=00:08:16.66 bitrate=N/A speed=15.5x    frame=12114 fps=372 q=-0.0 size=N/A time=00:08:25.25 bitrate=N/A speed=15.5x    frame=12318 fps=373 q=-0.0 size=N/A time=00:08:33.76 bitrate=N/A speed=15.6x    frame=12524 fps=373 q=-0.0 size=N/A time=00:08:42.35 bitrate=N/A speed=15.6x    frame=12735 fps=374 q=-0.0 size=N/A time=00:08:51.15 bitrate=N/A speed=15.6x    frame=12940 fps=374 q=-0.0 size=N/A time=00:08:59.70 bitrate=N/A speed=15.6x    frame=13142 fps=374 q=-0.0 size=N/A time=00:09:08.13 bitrate=N/A speed=15.6x    frame=13335 fps=374 q=-0.0 size=N/A time=00:09:16.18 bitrate=N/A speed=15.6x    frame=13538 fps=374 q=-0.0 size=N/A time=00:09:24.64 bitrate=N/A speed=15.6x    frame=13739 fps=375 q=-0.0 size=N/A time=00:09:33.03 bitrate=N/A speed=15.6x    frame=13943 fps=375 q=-0.0 size=N/A time=00:09:41.53 bitrate=N/A speed=15.6x    frame=14128 fps=375 q=-0.0 size=N/A time=00:09:49.25 bitrate=N/A speed=15.6x    frame=14334 fps=375 q=-0.0 size=N/A time=00:09:57.84 bitrate=N/A speed=15.6x    frame=14531 fps=375 q=-0.0 size=N/A time=00:10:06.06 bitrate=N/A speed=15.6x    frame=14733 fps=375 q=-0.0 size=N/A time=00:10:14.48 bitrate=N/A speed=15.7x    frame=14934 fps=376 q=-0.0 size=N/A time=00:10:22.87 bitrate=N/A speed=15.7x    frame=15120 fps=375 q=-0.0 size=N/A time=00:10:30.63 bitrate=N/A speed=15.7x    frame=15308 fps=375 q=-0.0 size=N/A time=00:10:38.47 bitrate=N/A speed=15.7x    frame=15502 fps=375 q=-0.0 size=N/A time=00:10:46.56 bitrate=N/A speed=15.7x    frame=15707 fps=376 q=-0.0 size=N/A time=00:10:55.11 bitrate=N/A speed=15.7x    frame=15922 fps=376 q=-0.0 size=N/A time=00:11:04.08 bitrate=N/A speed=15.7x    frame=16123 fps=376 q=-0.0 size=N/A time=00:11:12.46 bitrate=N/A speed=15.7x    frame=16326 fps=376 q=-0.0 size=N/A time=00:11:20.93 bitrate=N/A speed=15.7x    frame=16527 fps=377 q=-0.0 size=N/A time=00:11:29.31 bitrate=N/A speed=15.7x    frame=16738 fps=377 q=-0.0 size=N/A time=00:11:38.11 bitrate=N/A speed=15.7x    frame=16938 fps=377 q=-0.0 size=N/A time=00:11:46.45 bitrate=N/A speed=15.7x    frame=17140 fps=377 q=-0.0 size=N/A time=00:11:54.88 bitrate=N/A speed=15.7x    frame=17344 fps=378 q=-0.0 size=N/A time=00:12:03.38 bitrate=N/A speed=15.7x    frame=17547 fps=378 q=-0.0 size=N/A time=00:12:11.85 bitrate=N/A speed=15.8x    frame=17744 fps=378 q=-0.0 size=N/A time=00:12:20.07 bitrate=N/A speed=15.8x    frame=17949 fps=378 q=-0.0 size=N/A time=00:12:28.62 bitrate=N/A speed=15.8x    frame=18156 fps=378 q=-0.0 size=N/A time=00:12:37.25 bitrate=N/A speed=15.8x    frame=18346 fps=378 q=-0.0 size=N/A time=00:12:45.18 bitrate=N/A speed=15.8x    frame=18544 fps=378 q=-0.0 size=N/A time=00:12:53.43 bitrate=N/A speed=15.8x    frame=18749 fps=378 q=-0.0 size=N/A time=00:13:01.98 bitrate=N/A speed=15.8x    frame=18955 fps=379 q=-0.0 size=N/A time=00:13:10.58 bitrate=N/A speed=15.8x    frame=19160 fps=379 q=-0.0 size=N/A time=00:13:19.13 bitrate=N/A speed=15.8x    frame=19364 fps=379 q=-0.0 size=N/A time=00:13:27.64 bitrate=N/A speed=15.8x    frame=19573 fps=379 q=-0.0 size=N/A time=00:13:36.35 bitrate=N/A speed=15.8x    frame=19776 fps=379 q=-0.0 size=N/A time=00:13:44.82 bitrate=N/A speed=15.8x    frame=19980 fps=380 q=-0.0 size=N/A time=00:13:53.33 bitrate=N/A speed=15.8x    frame=20194 fps=380 q=-0.0 size=N/A time=00:14:02.25 bitrate=N/A speed=15.8x    frame=20391 fps=380 q=-0.0 size=N/A time=00:14:10.47 bitrate=N/A speed=15.8x    frame=20584 fps=380 q=-0.0 size=N/A time=00:14:18.52 bitrate=N/A speed=15.8x    frame=20780 fps=380 q=-0.0 size=N/A time=00:14:26.69 bitrate=N/A speed=15.8x    frame=20984 fps=380 q=-0.0 size=N/A time=00:14:35.20 bitrate=N/A speed=15.8x    frame=21197 fps=380 q=-0.0 size=N/A time=00:14:44.09 bitrate=N/A speed=15.9x    frame=21397 fps=380 q=-0.0 size=N/A time=00:14:52.43 bitrate=N/A speed=15.9x    frame=21601 fps=380 q=-0.0 size=N/A time=00:15:00.94 bitrate=N/A speed=15.9x    frame=21800 fps=381 q=-0.0 size=N/A time=00:15:09.24 bitrate=N/A speed=15.9x    frame=22012 fps=381 q=-0.0 size=N/A time=00:15:18.08 bitrate=N/A speed=15.9x    frame=22218 fps=381 q=-0.0 size=N/A time=00:15:26.67 bitrate=N/A speed=15.9x    frame=22418 fps=381 q=-0.0 size=N/A time=00:15:35.01 bitrate=N/A speed=15.9x    frame=22625 fps=381 q=-0.0 size=N/A time=00:15:43.65 bitrate=N/A speed=15.9x    frame=22824 fps=381 q=-0.0 size=N/A time=00:15:51.95 bitrate=N/A speed=15.9x    frame=23025 fps=381 q=-0.0 size=N/A time=00:16:00.33 bitrate=N/A speed=15.9x    frame=23232 fps=382 q=-0.0 size=N/A time=00:16:08.96 bitrate=N/A speed=15.9x    frame=23433 fps=382 q=-0.0 size=N/A time=00:16:17.35 bitrate=N/A speed=15.9x    frame=23641 fps=382 q=-0.0 size=N/A time=00:16:26.02 bitrate=N/A speed=15.9x    frame=23844 fps=382 q=-0.0 size=N/A time=00:16:34.49 bitrate=N/A speed=15.9x    frame=24041 fps=382 q=-0.0 size=N/A time=00:16:42.71 bitrate=N/A speed=15.9x    frame=24230 fps=382 q=-0.0 size=N/A time=00:16:50.59 bitrate=N/A speed=15.9x    frame=24439 fps=382 q=-0.0 size=N/A time=00:16:59.30 bitrate=N/A speed=15.9x    frame=24632 fps=382 q=-0.0 size=N/A time=00:17:07.35 bitrate=N/A speed=15.9x    frame=24827 fps=382 q=-0.0 size=N/A time=00:17:15.49 bitrate=N/A speed=15.9x    frame=25023 fps=382 q=-0.0 size=N/A time=00:17:23.66 bitrate=N/A speed=15.9x    frame=25226 fps=382 q=-0.0 size=N/A time=00:17:32.13 bitrate=N/A speed=15.9x    frame=25421 fps=382 q=-0.0 size=N/A time=00:17:40.26 bitrate=N/A speed=15.9x    frame=25622 fps=382 q=-0.0 size=N/A time=00:17:48.65 bitrate=N/A speed=15.9x    frame=25816 fps=382 q=-0.0 size=N/A time=00:17:56.74 bitrate=N/A speed=15.9x    frame=26027 fps=382 q=-0.0 size=N/A time=00:18:05.54 bitrate=N/A speed=15.9x    frame=26231 fps=382 q=-0.0 size=N/A time=00:18:14.05 bitrate=N/A speed=15.9x    frame=26437 fps=382 q=-0.0 size=N/A time=00:18:22.64 bitrate=N/A speed=15.9x    frame=26642 fps=382 q=-0.0 size=N/A time=00:18:31.19 bitrate=N/A speed=  16x    frame=26854 fps=383 q=-0.0 size=N/A time=00:18:40.03 bitrate=N/A speed=  16x    frame=27041 fps=382 q=-0.0 size=N/A time=00:18:47.83 bitrate=N/A speed=  16x    frame=27231 fps=382 q=-0.0 size=N/A time=00:18:55.75 bitrate=N/A speed=15.9x    frame=27425 fps=382 q=-0.0 size=N/A time=00:19:03.85 bitrate=N/A speed=15.9x    frame=27635 fps=383 q=-0.0 size=N/A time=00:19:12.60 bitrate=N/A speed=  16x    frame=27829 fps=382 q=-0.0 size=N/A time=00:19:20.70 bitrate=N/A speed=  16x    frame=28032 fps=383 q=-0.0 size=N/A time=00:19:29.16 bitrate=N/A speed=  16x    frame=28235 fps=383 q=-0.0 size=N/A time=00:19:37.63 bitrate=N/A speed=  16x    frame=28436 fps=383 q=-0.0 size=N/A time=00:19:46.01 bitrate=N/A speed=  16x    frame=28642 fps=383 q=-0.0 size=N/A time=00:19:54.61 bitrate=N/A speed=  16x    frame=28825 fps=383 q=-0.0 size=N/A time=00:20:02.24 bitrate=N/A speed=  16x    frame=29003 fps=382 q=-0.0 size=N/A time=00:20:09.66 bitrate=N/A speed=15.9x    frame=29198 fps=382 q=-0.0 size=N/A time=00:20:17.79 bitrate=N/A speed=15.9x    frame=29392 fps=382 q=-0.0 size=N/A time=00:20:25.89 bitrate=N/A speed=15.9x    frame=29566 fps=382 q=-0.0 size=N/A time=00:20:33.14 bitrate=N/A speed=15.9x    frame=29754 fps=382 q=-0.0 size=N/A time=00:20:40.98 bitrate=N/A speed=15.9x    frame=29936 fps=382 q=-0.0 size=N/A time=00:20:48.58 bitrate=N/A speed=15.9x    frame=30110 fps=381 q=-0.0 size=N/A time=00:20:55.83 bitrate=N/A speed=15.9x    frame=30302 fps=381 q=-0.0 size=N/A time=00:21:03.84 bitrate=N/A speed=15.9x    frame=30504 fps=381 q=-0.0 size=N/A time=00:21:12.27 bitrate=N/A speed=15.9x    frame=30709 fps=381 q=-0.0 size=N/A time=00:21:20.82 bitrate=N/A speed=15.9x    frame=30919 fps=382 q=-0.0 size=N/A time=00:21:29.57 bitrate=N/A speed=15.9x    frame=31119 fps=382 q=-0.0 size=N/A time=00:21:37.92 bitrate=N/A speed=15.9x    frame=31314 fps=382 q=-0.0 size=N/A time=00:21:46.05 bitrate=N/A speed=15.9x    frame=31510 fps=382 q=-0.0 size=N/A time=00:21:54.22 bitrate=N/A speed=15.9x    frame=31711 fps=382 q=-0.0 size=N/A time=00:22:02.61 bitrate=N/A speed=15.9x    frame=31900 fps=382 q=-0.0 size=N/A time=00:22:10.49 bitrate=N/A speed=15.9x    frame=32094 fps=382 q=-0.0 size=N/A time=00:22:18.58 bitrate=N/A speed=15.9x    frame=32296 fps=382 q=-0.0 size=N/A time=00:22:27.01 bitrate=N/A speed=15.9x    frame=32497 fps=382 q=-0.0 size=N/A time=00:22:35.39 bitrate=N/A speed=15.9x    frame=32668 fps=381 q=-0.0 size=N/A time=00:22:42.52 bitrate=N/A speed=15.9x    frame=32828 fps=381 q=-0.0 size=N/A time=00:22:49.20 bitrate=N/A speed=15.9x    frame=33015 fps=381 q=-0.0 size=N/A time=00:22:57.00 bitrate=N/A speed=15.9x    frame=33201 fps=381 q=-0.0 size=N/A time=00:23:04.75 bitrate=N/A speed=15.9x    frame=33389 fps=381 q=-0.0 size=N/A time=00:23:12.59 bitrate=N/A speed=15.9x    frame=33552 fps=380 q=-0.0 size=N/A time=00:23:19.39 bitrate=N/A speed=15.9x    frame=33708 fps=380 q=-0.0 size=N/A time=00:23:25.90 bitrate=N/A speed=15.8x    frame=33834 fps=379 q=-0.0 size=N/A time=00:23:31.15 bitrate=N/A speed=15.8x    frame=33981 fps=378 q=-0.0 size=N/A time=00:23:37.29 bitrate=N/A speed=15.8x    frame=34148 fps=378 q=-0.0 size=N/A time=00:23:44.25 bitrate=N/A speed=15.8x    frame=34309 fps=378 q=-0.0 size=N/A time=00:23:50.97 bitrate=N/A speed=15.8x    frame=34443 fps=377 q=-0.0 size=N/A time=00:23:56.56 bitrate=N/A speed=15.7x    frame=34628 fps=377 q=-0.0 size=N/A time=00:24:04.27 bitrate=N/A speed=15.7x    [Parsed_psnr_16 @ 0000019a9ec9a6c0] PSNR y:48.891638 u:50.265053 v:50.292257 average:49.306623 min:38.008021 max:inf
[out#0/null @ 0000019a91c5d9c0] video:14903KiB audio:271276KiB subtitle:0KiB other streams:0KiB global headers:0KiB muxing overhead: unknown
frame=34683 fps=377 q=-0.0 Lsize=N/A time=00:24:06.57 bitrate=N/A speed=15.7x    
